HIERARCHY
ROOT Hips
{
  OFFSET 0.0273292 -0.436096 0.279869
  CHANNELS 6 Xposition Yposition Zposition Zrotation Xrotation Yrotation
  JOINT LHipJoint
  {
    OFFSET 0 0 0
    CHANNELS 6 Xposition Yposition Zposition Zrotation Xrotation Yrotation
    JOINT LeftUpLeg
    {
      OFFSET 1.36306 -1.79463 0
      CHANNELS 6 Xposition Yposition Zposition Zrotation Xrotation Yrotation
      JOINT LeftLeg
      {
        OFFSET 2.44807 -6.72613 0.000295034
        CHANNELS 6 Xposition Yposition Zposition Zrotation Xrotation Yrotation
        JOINT LeftFoot
        {
          OFFSET 2.5622 -7.03959 3.59965e-05
          CHANNELS 6 Xposition Yposition Zposition Zrotation Xrotation Yrotation
          JOINT LeftToeBase
          {
            OFFSET 0.15764 -0.43311 2.32255
            CHANNELS 6 Xposition Yposition Zposition Zrotation Xrotation Yrotation
            End Site
            {
              OFFSET 0 0 0
            }
          }
        }
      }
    }
  }
  JOINT RHipJoint
  {
    OFFSET 0 0 0
    CHANNELS 6 Xposition Yposition Zposition Zrotation Xrotation Yrotation
    JOINT RightUpLeg
    {
      OFFSET -1.30552 -1.79463 0
      CHANNELS 6 Xposition Yposition Zposition Zrotation Xrotation Yrotation
      JOINT RightLeg
      {
        OFFSET -2.54234 -6.98562 -0.000396375
        CHANNELS 6 Xposition Yposition Zposition Zrotation Xrotation Yrotation
        JOINT RightFoot
        {
          OFFSET -2.56826 -7.05623 -4.47982e-05
          CHANNELS 6 Xposition Yposition Zposition Zrotation Xrotation Yrotation
          JOINT RightToeBase
          {
            OFFSET -0.16473 -0.45259 2.36315
            CHANNELS 6 Xposition Yposition Zposition Zrotation Xrotation Yrotation
            End Site
            {
              OFFSET 0 0 0
            }
          }
        }
      }
    }
  }
  JOINT LowerBack
  {
    OFFSET 0 0 0
    CHANNELS 6 Xposition Yposition Zposition Zrotation Xrotation Yrotation
    JOINT Spine
    {
      OFFSET 0.0282699 2.03559 0
      CHANNELS 6 Xposition Yposition Zposition Zrotation Xrotation Yrotation
      JOINT Spine1
      {
        OFFSET 0.05672 2.04885 -0.04275
        CHANNELS 6 Xposition Yposition Zposition Zrotation Xrotation Yrotation
        JOINT Neck
        {
          OFFSET 0 0 0
          CHANNELS 6 Xposition Yposition Zposition Zrotation Xrotation Yrotation
          JOINT Neck1
          {
            OFFSET -0.05417 1.74624 0.17202
            CHANNELS 6 Xposition Yposition Zposition Zrotation Xrotation Yrotation
            JOINT Head
            {
              OFFSET 0.10407 1.76136 -0.12397
              CHANNELS 6 Xposition Yposition Zposition Zrotation Xrotation Yrotation
              End Site
              {
                OFFSET 0 0 0
              }
            }
          }
        }
        JOINT LeftShoulder
        {
          OFFSET 0 0 0
          CHANNELS 6 Xposition Yposition Zposition Zrotation Xrotation Yrotation
          JOINT LeftArm
          {
            OFFSET 3.36241 1.20089 -0.311211
            CHANNELS 6 Xposition Yposition Zposition Zrotation Xrotation Yrotation
            JOINT LeftForeArm
            {
              OFFSET 4.983 0.000197398 0.000166057
              CHANNELS 6 Xposition Yposition Zposition Zrotation Xrotation Yrotation
              JOINT LeftHand
              {
                OFFSET 3.48356 0 1.87849e-05
                CHANNELS 6 Xposition Yposition Zposition Zrotation Xrotation Yrotation
                JOINT LeftFingerBase
                {
                  OFFSET 0 0 0
                  CHANNELS 6 Xposition Yposition Zposition Zrotation Xrotation Yrotation
                  JOINT LeftHandIndex1
                  {
                    OFFSET 0.71526 0 0
                    CHANNELS 6 Xposition Yposition Zposition Zrotation Xrotation Yrotation
                    End Site
                    {
                      OFFSET 0 0 0
                    }
                  }
                }
                JOINT LThumb
                {
                  OFFSET 0 0 0
                  CHANNELS 6 Xposition Yposition Zposition Zrotation Xrotation Yrotation
                  End Site
                  {
                    OFFSET 0 0 0
                  }
                }
              }
            }
          }
        }
        JOINT RightShoulder
        {
          OFFSET 0 0 0
          CHANNELS 6 Xposition Yposition Zposition Zrotation Xrotation Yrotation
          JOINT RightArm
          {
            OFFSET -3.1366 1.37405 -0.404651
            CHANNELS 6 Xposition Yposition Zposition Zrotation Xrotation Yrotation
            JOINT RightForeArm
            {
              OFFSET -5.2419 -5.8808e-05 -0.000165864
              CHANNELS 6 Xposition Yposition Zposition Zrotation Xrotation Yrotation
              JOINT RightHand
              {
                OFFSET -3.44417 0 -2.00002e-05
                CHANNELS 6 Xposition Yposition Zposition Zrotation Xrotation Yrotation
                JOINT RightFingerBase
                {
                  OFFSET 0 0 0
                  CHANNELS 6 Xposition Yposition Zposition Zrotation Xrotation Yrotation
                  JOINT RightHandIndex1
                  {
                    OFFSET -0.62253 0 0
                    CHANNELS 6 Xposition Yposition Zposition Zrotation Xrotation Yrotation
                    End Site
                    {
                      OFFSET 0 0 0
                    }
                  }
                }
                JOINT RThumb
                {
                  OFFSET 0 0 0
                  CHANNELS 6 Xposition Yposition Zposition Zrotation Xrotation Yrotation
                  End Site
                  {
                    OFFSET 0 0 0
                  }
                }
              }
            }
          }
        }
      }
    }
  }
}
MOTION
Frames:	6
Frame Time:	0.00833333
0.240346 1.68681 -1.57531 0 23.4073 -0 0 0 0 -0 -6.36111e-15 -0 1.36306 -1.79463 -1.29e-07 6.21451 -86.1853 -22.7756 2.44779 -6.72625 -0.000177884 -71.093 60.6067 89.5241 2.56231 -7.03954 -3.17104e-05 13.8815 -9.28925 16.5604 0.15764 -0.43311 2.32255 -3.97569e-15 -3.18055e-15 -3.18055e-15 0 0 0 -0 -6.36111e-15 -0 -1.30552 -1.79463 -1.29e-07 24.5543 -51.9202 22.4108 -2.54111 -6.98607 0.00147489 46.3896 62.8809 -54.4392 -2.56829 -7.05621 2.3074e-05 7.90492 -2.37306 3.96964 -0.16473 -0.45259 2.36315 -4.77083e-15 -6.36111e-15 -1.59028e-15 0 0 0 -0 -6.36111e-15 -0 0.0282699 2.03559 -6.91999e-07 0.194321 -0.800844 1.34459 0.05672 2.04885 -0.04275 4.96962e-17 0 -0 0 0 0 -4.96962e-17 0 -3.97569e-16 -0.05417 1.74624 0.17202 -0.542406 -24.2984 1.56231 0.10407 1.76136 -0.12397 1.2424e-17 -1.98785e-16 3.97569e-16 0 0 0 -4.96962e-17 0 -3.97569e-16 3.36241 1.20089 -0.31121 -21.7078 -27.9663 -51.8314 4.983 -0.000189345 -0.000227787 1.91629 1.21872 -75.2862 3.48356 -3.46861e-06 1.09872e-05 -6.03485e-05 2.78299e-15 -0.000170607 0 0 0 -7.95139e-16 2.78299e-15 6.36111e-15 0.71526 -8.88178e-16 0 -1.59028e-15 7.95139e-16 -0 0 0 0 -7.95139e-16 2.78299e-15 6.36111e-15 0 0 0 -4.96962e-17 0 -3.97569e-16 -3.1366 1.37405 -0.40465 18.0319 -28.0749 23.4918 -5.2419 -0.000631664 -3.89281e-06 -1.97584 1.23132 78.3788 -3.44417 -2.84205e-06 2.08334e-05 -1.59026e-15 -3.8763e-15 0.000297875 0 0 0 3.03456e-32 2.18663e-15 -7.95139e-16 -0.62253 0 0 1.59028e-15 5.96354e-16 -7.95139e-16 0 0 0 3.03456e-32 2.18663e-15 -7.95139e-16 
0.250899 1.68704 -1.57417 -0.0291365 23.5848 -0.00498853 0 0 0 -3.88251e-19 0 5.43552e-18 1.36306 -1.79463 -1.29e-07 -0.951755 -86.9131 -30.1169 2.44779 -6.72625 -0.000177884 -70.9124 60.4993 89.6999 2.56231 -7.03954 -3.17104e-05 14.1328 -9.44814 16.3481 0.15764 -0.43311 2.32255 7.15625e-15 -1.59028e-15 -0 0 0 0 -3.88251e-19 0 5.43552e-18 -1.30552 -1.79463 -1.29e-07 24.0668 -52.4187 22.5351 -2.54111 -6.98607 0.00147489 46.5234 62.9316 -54.4891 -2.56829 -7.05621 2.3074e-05 8.45599 -2.43738 3.82662 -0.16473 -0.45259 2.36315 -2.64834e-31 9.54166e-15 1.59028e-15 0 0 0 -3.88251e-19 0 5.43552e-18 0.0282699 2.03559 -6.91999e-07 0.195416 -0.820361 1.36436 0.05672 2.04885 -0.04275 9.93923e-17 0 -3.97569e-16 0 0 0 0 0 -3.97569e-16 -0.05417 1.74624 0.17202 -0.527132 -24.4901 1.57874 0.10407 1.76136 -0.12397 -1.2424e-17 -1.98785e-16 -1.19271e-15 0 0 0 0 0 -3.97569e-16 3.36241 1.20089 -0.31121 -21.8413 -28.1958 -51.9553 4.983 -0.000189345 -0.000227787 1.90777 1.24776 -75.5939 3.48356 -3.46861e-06 1.09872e-05 0.0559835 -0.0320802 0.0365615 0 0 0 -7.95139e-16 -3.97569e-16 -3.18055e-15 0.71526 0 0 7.95139e-16 1.19271e-15 6.36111e-15 0 0 0 -7.95139e-16 -3.97569e-16 -3.18055e-15 0 0 0 0 0 -3.97569e-16 -3.1366 1.37405 -0.40465 18.0063 -28.5003 23.5914 -5.2419 -0.000631664 -3.89281e-06 -1.95649 1.237 78.2734 -3.44417 -2.84205e-06 2.08334e-05 0.023918 -0.0781521 -0.241732 0 0 0 -8.27607e-33 -2.98177e-16 -1.59028e-15 -0.62253 8.88178e-16 0 -0 -1.98785e-15 -0 0 0 0 -8.27607e-33 -2.98177e-16 -1.59028e-15 
0.255251 1.68793 -1.57167 -0.040385 23.676 -0.00685858 0 0 0 -6.21202e-18 9.54166e-15 1.55301e-18 1.36306 -1.79463 -1.29e-07 -5.81795 -87.2689 -35.0723 2.44779 -6.72625 -0.000177884 -70.8191 60.4441 89.7897 2.56231 -7.03954 -3.17104e-05 14.1648 -9.54895 15.8316 0.15764 -0.43311 2.32255 2.38542e-15 3.18055e-15 6.36111e-15 0 0 0 -6.21202e-18 9.54166e-15 1.55301e-18 -1.30552 -1.79463 -1.29e-07 23.6795 -52.7236 22.3547 -2.54111 -6.98607 0.00147489 46.6637 62.9965 -54.4464 -2.56829 -7.05621 2.3074e-05 8.70248 -2.59319 3.75422 -0.16473 -0.45259 2.36315 -1.59028e-15 3.18055e-15 1.59028e-15 0 0 0 -6.21202e-18 9.54166e-15 1.55301e-18 0.0282699 2.03559 -6.91999e-07 0.196935 -0.8291 1.37303 0.05672 2.04885 -0.04275 -9.93923e-17 0 -1.98785e-16 0 0 0 9.93923e-17 0 1.98785e-16 -0.05417 1.74624 0.17202 -0.500156 -24.5882 1.6139 0.10407 1.76136 -0.12397 7.45443e-17 0 3.97569e-16 0 0 0 9.93923e-17 0 1.98785e-16 3.36241 1.20089 -0.31121 -21.8822 -28.3451 -51.9604 4.983 -0.000189345 -0.000227787 1.90356 1.26179 -75.752 3.48356 -3.46861e-06 1.09872e-05 0.19456 -0.115427 0.128764 0 0 0 0 0 -3.18055e-15 0.71526 0 -8.88178e-16 1.59028e-15 -3.97569e-16 -6.36111e-15 0 0 0 0 0 -3.18055e-15 0 0 0 9.93923e-17 0 1.98785e-16 -3.1366 1.37405 -0.40465 18.0123 -28.7174 23.6427 -5.2419 -0.000631664 -3.89281e-06 -1.91247 1.25051 77.981 -3.44417 -2.84205e-06 2.08334e-05 0.0849518 -0.267016 -0.832426 0 0 0 7.95139e-16 -2.78299e-15 -1.59028e-15 -0.62253 -8.88178e-16 0 -7.95139e-16 -2.88238e-15 -1.59028e-15 0 0 0 7.95139e-16 -2.78299e-15 -1.59028e-15 
0.257114 1.68976 -1.56917 -0.0454282 23.7096 -0.00771789 0 0 0 1.04828e-17 9.54166e-15 -1.55301e-18 1.36306 -1.79463 -1.29e-07 -8.0164 -87.3914 -37.3036 2.44779 -6.72625 -0.000177884 -70.7847 60.4237 89.8226 2.56231 -7.03954 -3.17104e-05 14.113 -9.60513 15.2194 0.15764 -0.43311 2.32255 -2.38542e-15 -3.18055e-15 -0 0 0 0 1.04828e-17 9.54166e-15 -1.55301e-18 -1.30552 -1.79463 -1.29e-07 23.3074 -52.8888 22.0184 -2.54111 -6.98607 0.00147489 46.7888 63.0649 -54.3517 -2.56829 -7.05621 2.3074e-05 8.81219 -2.78638 3.71393 -0.16473 -0.45259 2.36315 3.18055e-15 -1.27222e-14 -1.59028e-15 0 0 0 1.04828e-17 9.54166e-15 -1.55301e-18 0.0282699 2.03559 -6.91999e-07 0.199279 -0.832632 1.37658 0.05672 2.04885 -0.04275 -9.93923e-17 0 -1.98785e-16 0 0 0 -9.93923e-17 0 -0 -0.05417 1.74624 0.17202 -0.467573 -24.624 1.65576 0.10407 1.76136 -0.12397 -1.2424e-17 0 3.97569e-16 0 0 0 -9.93923e-17 0 -0 3.36241 1.20089 -0.31121 -21.8527 -28.4501 -51.8689 4.983 -0.000189345 -0.000227787 1.90204 1.26681 -75.8102 3.48356 -3.46861e-06 1.09872e-05 0.371359 -0.230698 0.249447 0 0 0 -7.95139e-16 3.18055e-15 -3.18055e-15 0.71526 -1.77636e-15 0 -2.38542e-15 -1.59028e-15 -3.18055e-15 0 0 0 -7.95139e-16 3.18055e-15 -3.18055e-15 0 0 0 -9.93923e-17 0 -0 -3.1366 1.37405 -0.40465 18.0095 -28.7979 23.6606 -5.2419 -0.000631664 -3.89281e-06 -1.86495 1.26585 77.5365 -3.44417 -2.84205e-06 2.08334e-05 0.168734 -0.498139 -1.56871 0 0 0 7.95139e-16 2.68359e-15 3.97569e-16 -0.62253 0 8.88178e-16 -3.72423e-32 2.68359e-15 7.95139e-16 0 0 0 7.95139e-16 2.68359e-15 3.97569e-16 
0.260201 1.69283 -1.56803 -0.0559267 23.7144 -0.009683 0 0 0 5.43552e-18 0 -0 1.36306 -1.79463 -1.29e-07 -9.11008 -87.3815 -38.4028 2.44779 -6.72625 -0.000177884 -70.7797 60.4208 89.8273 2.56231 -7.03954 -3.17104e-05 14.1133 -9.63116 14.7205 0.15764 -0.43311 2.32255 -1.59028e-15 0 -3.18055e-15 0 0 0 5.43552e-18 0 -0 -1.30552 -1.79463 -1.29e-07 22.8719 -52.968 21.681 -2.54111 -6.98607 0.00147489 46.8774 63.1262 -54.2463 -2.56829 -7.05621 2.3074e-05 8.95283 -2.96283 3.6672 -0.16473 -0.45259 2.36315 0 0 -1.59028e-15 0 0 0 5.43552e-18 0 -0 0.0282699 2.03559 -6.91999e-07 0.202856 -0.836529 1.38103 0.05672 2.04885 -0.04275 0 0 -3.97569e-16 0 0 0 -9.93923e-17 0 -3.97569e-16 -0.05417 1.74624 0.17202 -0.435508 -24.6288 1.69226 0.10407 1.76136 -0.12397 6.21202e-17 -3.97569e-16 -0 0 0 0 -9.93923e-17 0 -3.97569e-16 3.36241 1.20089 -0.31121 -21.7759 -28.5461 -51.7037 4.983 -0.000189345 -0.000227787 1.90183 1.26753 -75.8185 3.48356 -3.46861e-06 1.09872e-05 0.541852 -0.358551 0.371621 0 0 0 7.95139e-16 -1.59028e-15 -0 0.71526 -8.88178e-16 0 -2.38542e-15 0 3.18055e-15 0 0 0 7.95139e-16 -1.59028e-15 -0 0 0 0 -9.93923e-17 0 -3.97569e-16 -3.1366 1.37405 -0.40465 17.9582 -28.8133 23.6615 -5.2419 -0.000631664 -3.89281e-06 -1.83523 1.27631 76.9751 -3.44417 -2.84205e-06 2.08334e-05 0.265911 -0.703106 -2.2475 0 0 0 -5.4829e-32 2.6339e-15 1.19271e-15 -0.62253 0 0 -7.95139e-16 4.27387e-15 7.95139e-16 0 0 0 -5.4829e-32 2.6339e-15 1.19271e-15 
0.265073 1.69771 -1.56939 -0.0742055 23.6809 -0.0131954 0 0 0 -6.98852e-18 6.36111e-15 -9.31803e-18 1.36306 -1.79463 -1.29e-07 -10.2789 -87.2759 -39.3681 2.44779 -6.72625 -0.000177884 -70.2682 60.4245 89.3322 2.56231 -7.03954 -3.17104e-05 14.1718 -9.57424 14.3724 0.15764 -0.43311 2.32255 -2.38542e-15 0 -0 0 0 0 -6.98852e-18 6.36111e-15 -9.31803e-18 -1.30552 -1.79463 -1.29e-07 22.3831 -52.9856 21.3723 -2.54111 -6.98607 0.00147489 46.6257 63.0844 -53.8636 -2.56829 -7.05621 2.3074e-05 9.14302 -3.11361 3.60781 -0.16473 -0.45259 2.36315 3.18055e-15 0 -4.77083e-15 0 0 0 -6.98852e-18 6.36111e-15 -9.31803e-18 0.0282699 2.03559 -6.91999e-07 0.208038 -0.840965 1.38655 0.05672 2.04885 -0.04275 1.98785e-16 -3.18055e-15 -5.96354e-16 0 0 0 -1.65521e-31 -9.54166e-15 -9.93923e-16 -0.05417 1.74624 0.17202 -0.404557 -24.5931 1.72034 0.10407 1.76136 -0.12397 -1.2424e-17 3.97569e-16 -0 0 0 0 -1.65521e-31 -9.54166e-15 -9.93923e-16 3.36241 1.20089 -0.31121 -21.6408 -28.5937 -51.4039 4.983 -0.000189345 -0.000227787 1.90242 1.2616 -75.6628 3.48356 -3.46861e-06 1.09872e-05 0.701169 -0.499943 0.49335 0 0 0 -6.36111e-15 2.38542e-15 -0 0.71526 -8.88178e-16 -1.77636e-15 -1.59028e-15 2.38542e-15 -3.18055e-15 0 0 0 -6.36111e-15 2.38542e-15 -0 0 0 0 -1.65521e-31 -9.54166e-15 -9.93923e-16 -3.1366 1.37405 -0.40465 17.8768 -28.8184 23.6538 -5.2419 -0.000631664 -3.89281e-06 -1.83466 1.27442 76.2342 -3.44417 -2.84205e-06 2.08334e-05 0.381058 -0.870465 -2.83959 0 0 0 -2.50006e-33 -7.20594e-16 -1.98785e-16 -0.62253 0 -8.88178e-16 -7.95139e-16 2.42269e-15 -0 0 0 0 -2.50006e-33 -7.20594e-16 -1.98785e-16 
